<!DOCTYPE svg PUBLIC "-//W3C//DTD SVG 20010904//EN" "http://www.w3.org/TR/2001/REC-SVG-20010904/DTD/svg10.dtd">
<svg version="1.0" xmlns="http://www.w3.org/2000/svg" width="177px" height="218px" viewBox="0 0 1770 2180" preserveAspectRatio="xMidYMid meet">
<g id="layer101" fill="#a7a7a7" stroke="none">
 <path d="M1036 2095 c-39 -19 -75 -35 -81 -35 -22 0 -53 -45 -60 -87 -3 -23 -13 -47 -21 -54 -8 -6 -14 -25 -14 -41 0 -16 -12 -49 -26 -74 -21 -36 -25 -51 -19 -83 6 -34 1 -50 -26 -101 -40 -75 -96 -125 -219 -198 -384 -225 -500 -388 -500 -707 0 -262 75 -401 304 -563 122 -86 127 -86 187 -23 28 28 56 51 64 51 8 0 24 18 35 40 44 86 75 95 188 60 89 -28 122 -25 202 15 38 19 75 35 82 35 7 0 32 -19 56 -43 l43 -42 92 -3 92 -4 33 46 c121 169 151 390 91 669 -32 148 -47 327 -35 411 5 31 19 61 45 94 21 27 42 64 46 83 4 19 13 44 21 56 8 12 14 33 14 45 0 13 9 37 20 53 28 42 25 65 -17 153 -50 102 -142 196 -238 243 -64 32 -78 34 -180 37 -109 3 -111 2 -179 -33z"/>
 </g>
<g id="layer102" fill="#fcfcfc" stroke="none">
 <path d="M1145 2103 c-58 -9 -45 -21 47 -43 126 -31 240 -73 310 -115 32 -19 58 -31 58 -27 0 14 -84 94 -125 118 -85 50 -212 79 -290 67z"/>
 <path d="M1005 2040 c-17 -5 -43 -22 -58 -38 l-28 -29 108 -6 c125 -7 223 -32 340 -87 93 -43 162 -88 215 -138 41 -39 58 -36 58 14 0 53 -52 101 -185 173 -63 35 -146 74 -184 87 -76 26 -218 39 -266 24z"/>
 <path d="M925 1915 c-24 -23 -36 -63 -16 -51 15 10 221 -21 296 -44 110 -34 227 -96 305 -161 39 -33 75 -57 80 -54 18 11 11 72 -12 100 -33 43 -194 143 -257 161 -31 9 -65 22 -77 29 -31 20 -164 45 -234 45 -51 0 -65 -4 -85 -25z"/>
 <path d="M900 1817 c-21 -10 -58 -83 -48 -93 2 -1 23 2 48 6 92 18 266 -18 396 -80 56 -27 104 -61 156 -109 72 -67 76 -70 92 -52 42 47 5 120 -95 186 -170 113 -458 188 -549 142z"/>
 <path d="M897 1710 c-43 -13 -54 -26 -95 -114 -44 -92 -93 -142 -194 -196 -125 -67 -295 -189 -357 -256 -109 -119 -146 -229 -145 -424 0 -191 46 -319 154 -430 40 -41 55 -50 83 -50 68 0 79 72 12 84 -19 4 -41 16 -49 28 -13 18 -13 25 -1 56 8 19 15 36 15 38 0 2 -18 4 -40 4 -56 0 -80 26 -79 88 0 26 4 56 8 67 5 13 8 -2 7 -42 -1 -34 4 -67 9 -72 6 -6 35 -15 65 -21 29 -6 56 -12 58 -15 2 -2 -3 -23 -12 -46 -9 -23 -15 -44 -12 -46 3 -3 25 -8 50 -10 34 -4 72 3 153 28 104 33 110 36 188 109 46 44 112 93 158 118 75 42 88 54 67 67 -6 4 -8 16 -4 28 5 16 -2 28 -31 53 -32 26 -36 34 -27 50 11 18 11 18 12 1 0 -10 13 -30 30 -44 16 -13 30 -34 30 -46 0 -12 12 -31 28 -43 l27 -22 -29 -11 c-21 -9 -26 -16 -21 -29 4 -9 14 -36 22 -59 17 -50 17 -50 133 -23 47 11 100 20 118 20 44 0 75 -32 70 -72 -4 -24 5 -43 46 -96 29 -37 59 -68 67 -70 11 -2 27 21 52 77 73 159 91 309 57 466 -41 189 -69 350 -69 400 0 28 10 80 23 118 22 64 22 69 6 95 -10 15 -32 40 -50 56 -44 37 -50 25 -50 -99 0 -100 -21 -259 -40 -310 -10 -26 -11 -27 -29 -11 -11 10 -29 40 -40 67 -12 27 -28 49 -35 49 -17 0 -69 40 -62 48 3 3 15 -3 26 -13 20 -18 21 -18 35 1 17 22 22 18 59 -48 l19 -33 9 30 c7 23 26 271 28 366 0 19 -76 55 -206 97 l-91 29 -29 -56 c-17 -34 -68 -96 -127 -156 -118 -120 -154 -174 -136 -204 10 -15 20 -18 41 -14 15 3 28 1 28 -4 0 -5 6 -18 14 -29 14 -19 15 -19 38 2 13 12 34 25 48 28 23 6 24 5 6 -6 -11 -7 -32 -26 -47 -42 -24 -25 -30 -27 -43 -16 -9 7 -16 19 -16 26 0 10 -12 14 -38 14 -21 0 -43 5 -50 12 -9 9 -16 8 -30 -5 -24 -22 -42 -22 -42 1 0 34 134 208 242 313 107 105 125 133 91 143 -43 12 -80 14 -106 6z"/>
 <path d="M797 1635 c-9 -19 -15 -35 -12 -35 7 0 37 61 33 66 -3 2 -12 -12 -21 -31z"/>
 <path d="M705 1513 c-27 -25 -36 -37 -20 -25 28 19 84 73 74 72 -2 -1 -26 -22 -54 -47z"/>
 <path d="M1526 1444 c-9 -8 -16 -20 -16 -26 0 -6 1 -9 3 -7 1 2 11 14 21 27 22 25 16 30 -8 6z"/>
 <path d="M1494 1255 c0 -49 1 -71 3 -48 2 23 2 64 0 90 -2 26 -3 8 -3 -42z"/>
 <path d="M858 578 c-26 -18 -83 -66 -128 -106 -90 -81 -98 -85 -220 -116 l-85 -22 -6 -44 c-4 -29 -14 -50 -30 -63 l-24 -19 43 -37 c23 -20 55 -45 71 -54 29 -17 29 -17 52 18 13 18 40 44 61 57 21 13 44 39 54 61 22 47 58 77 94 77 15 0 58 -9 95 -21 36 -11 83 -21 104 -21 40 0 133 35 152 58 21 26 60 16 98 -25 20 -21 46 -43 58 -50 32 -16 132 -14 139 3 3 8 -20 46 -55 89 -52 65 -61 81 -61 116 l0 41 -62 -1 c-35 0 -94 -8 -133 -19 -41 -10 -76 -14 -85 -10 -8 5 -24 32 -35 62 -12 29 -28 54 -36 56 -9 1 -36 -12 -61 -30z m81 -39 c16 -50 43 -73 78 -66 48 10 207 36 221 37 6 0 12 -8 12 -17 0 -45 25 -97 70 -146 28 -30 50 -58 50 -62 0 -4 -28 -5 -62 -1 -56 6 -65 10 -105 51 -50 53 -76 57 -131 20 -20 -13 -56 -31 -79 -39 -39 -14 -48 -13 -110 5 -88 26 -170 28 -205 5 -15 -10 -37 -37 -48 -61 -12 -24 -30 -47 -40 -50 -10 -3 -35 -24 -54 -45 -20 -22 -38 -40 -42 -40 -3 0 -24 15 -47 32 -23 18 -43 33 -45 34 -2 1 6 17 17 35 12 19 21 46 21 61 0 29 -8 25 125 60 63 16 104 42 185 114 84 76 161 128 171 117 4 -5 12 -24 18 -44z"/>
 <path d="M844 504 c-21 -15 -59 -45 -84 -68 -60 -55 -140 -101 -219 -122 -37 -11 -65 -24 -68 -33 -4 -14 -21 -54 -31 -72 -1 -3 9 -14 23 -23 26 -17 27 -17 70 23 25 23 49 41 55 41 5 0 16 15 24 33 7 18 28 45 45 60 41 34 107 36 222 7 l80 -21 77 42 c89 49 110 48 170 -5 68 -61 113 -73 76 -20 -44 62 -54 80 -54 101 0 36 6 36 -202 -4 -47 -9 -76 5 -100 47 -13 22 -28 40 -34 40 -6 0 -29 -12 -50 -26z"/>
 <path d="M1094 324 c-19 -15 -19 -15 1 -6 11 5 27 12 35 15 13 5 13 6 -1 6 -8 1 -24 -6 -35 -15z"/>
 <path d="M708 299 c-10 -5 -23 -20 -29 -32 -10 -20 -9 -20 9 2 11 13 36 27 58 31 35 7 36 8 9 9 -16 0 -38 -4 -47 -10z"/>
 </g>

</svg>